<?xml version="1.0" standalone="no"?>
<!DOCTYPE svg PUBLIC "-//W3C//DTD SVG 20010904//EN"
 "http://www.w3.org/TR/2001/REC-SVG-20010904/DTD/svg10.dtd">
<svg version="1.0" xmlns="http://www.w3.org/2000/svg"
 width="512.000000pt" height="512.000000pt" viewBox="0 0 512.000000 512.000000"
 preserveAspectRatio="xMidYMid meet">
<metadata>
Created by potrace 1.14, written by Peter Selinger 2001-2017
</metadata>
<g transform="translate(0.000000,512.000000) scale(0.100000,-0.100000)"
fill="#000000" stroke="none">
<path d="M2505 5109 c-516 -99 -888 -373 -1133 -839 -115 -218 -218 -547 -247
-790 -3 -30 -8 -66 -10 -80 -6 -39 -15 -147 -20 -246 l-5 -91 128 -121 c70
-66 152 -143 182 -171 31 -30 50 -54 45 -59 -6 -4 -28 -14 -50 -21 -79 -26
-244 -112 -346 -179 -181 -120 -299 -253 -396 -447 -178 -353 -282 -622 -322
-825 -20 -104 -21 -115 -21 -220 -1 -274 97 -471 330 -664 68 -57 165 -121
231 -154 17 -9 29 -27 37 -57 13 -49 65 -108 115 -129 27 -12 287 -14 1632
-15 1538 -1 1602 0 1641 18 88 40 124 103 124 216 0 72 0 73 37 101 54 41 165
152 199 199 16 22 31 42 34 45 32 32 96 198 110 287 11 67 15 239 7 278 -3 11
-8 40 -12 65 -29 184 -115 416 -285 768 -112 231 -170 312 -310 435 -111 98
-341 231 -488 283 l-53 18 64 61 c237 226 271 255 287 250 10 -3 27 3 40 13
21 17 22 26 21 114 -1 52 -4 115 -6 139 -19 185 -21 194 -46 324 -29 144 -37
176 -76 300 -204 642 -616 1046 -1197 1176 -113 25 -178 30 -241 18z"/>
</g>
</svg>
